<svg width="94" height="94" viewBox="0 0 94 94" fill="none" xmlns="http://www.w3.org/2000/svg">
<path d="M46.9999 7.83334C25.4152 7.83334 7.83325 25.4152 7.83325 47C7.83325 68.5848 25.4152 86.1667 46.9999 86.1667C68.5847 86.1667 86.1666 68.5848 86.1666 47C86.1666 25.4152 68.5847 7.83334 46.9999 7.83334ZM46.9999 15.6667C64.3512 15.6667 78.3333 29.6487 78.3333 47C78.3333 64.3513 64.3512 78.3333 46.9999 78.3333C29.6486 78.3333 15.6666 64.3513 15.6666 47C15.6666 29.6487 29.6486 15.6667 46.9999 15.6667ZM43.0833 23.5V48.6218L59.8974 65.4359L65.4358 59.8975L50.9166 45.3783V23.5H43.0833Z" fill="black"/>
</svg>
